<svg xmlns="http://www.w3.org/2000/svg" xmlns:xlink="http://www.w3.org/1999/xlink" width="500" height="500" viewBox="0 0 500 500">
  <defs>
    <clipPath id="clip-FAVICON">
      <rect width="500" height="500"/>
    </clipPath>
  </defs>
  <g id="FAVICON" clip-path="url(#clip-FAVICON)">
    <rect width="500" height="500" fill="#fff"/>
    <g id="Groupe_3004" data-name="Groupe 3004" transform="translate(10.016 13.654)">
      <g id="Groupe_2255" data-name="Groupe 2255" transform="translate(-3.243 -3)">
        <path id="Tracé_1353" data-name="Tracé 1353" d="M462.494,569.273l66.753-128.885-4.506-1.74a70.283,70.283,0,0,0-22.182-3.571c-39.614,0-71.743,32.783-71.743,73.221,0,22.959,9.2,42.822,25.426,56.236C456.709,564.936,462.494,569.273,462.494,569.273Z" transform="translate(-260.445 -269.157)" fill="#2154a8"/>
        <path id="Tracé_1354" data-name="Tracé 1354" d="M538.924,864.24C466.152,823.175,412.59,744.029,412.59,655.516c0-131.542,108.312-238.188,241.908-238.188,34.755,0,72.314,9.123,102.18,22.1L715.3,521.639c-17.163-7.413-40.99-12.537-60.807-12.537-79.24,0-143.486,65.546-143.486,146.414,0,50.543,30.323,101.73,70.893,126.23Z" transform="translate(-412.59 -417.328)" fill="#2154a8"/>
      </g>
      <g id="Groupe_2258" data-name="Groupe 2258" transform="translate(137.169 27.808)">
        <path id="Tracé_1359" data-name="Tracé 1359" d="M602.16,504.08c45.168,24.66,73.071,70.3,73.071,126.221,0,80.867-64.247,146.432-143.506,146.432-25.463,0-39.8-4.693-61.246-13.882l-42.868,81.914c32.969,16.574,64.574,23.743,104.114,23.743,133.616,0,241.928-106.657,241.928-238.207,0-93.083-48.02-170.492-127.083-209.678Z" transform="translate(-427.611 -420.624)" fill="#d9000d"/>
        <path id="Tracé_1360" data-name="Tracé 1360" d="M435.679,565.188l67.2-128.727,3.926,2.823a72.655,72.655,0,0,1,15.406,16.695c22.332,33.391,13.9,78.951-18.818,101.732-18.592,12.946-39.858,16.4-59.863,10.272C442.942,567.813,435.679,565.188,435.679,565.188Z" transform="translate(-360.262 -288.431)" fill="#d9000d"/>
      </g>
    </g>
  </g>
</svg>
